<svg width="1889" height="1889" viewBox="0 0 1889 1889" fill="none" xmlns="http://www.w3.org/2000/svg">
<g clip-path="url(#clip0_16_2)">
<rect width="1889" height="1889" fill="#070707"/>
<path d="M275.967 734.7C313.3 734.7 343.4 738.9 366.267 747.3C389.133 755.233 405.7 769.233 415.967 789.3C426.7 809.367 432.067 837.6 432.067 874C432.067 900.133 429.033 922.067 422.967 939.8C416.9 957.067 407.333 970.6 394.267 980.4C381.667 989.733 364.633 995.8 343.167 998.6V1002.1C351.1 1003.97 358.8 1007.93 366.267 1014C374.2 1019.6 381.433 1027.3 387.967 1037.1C394.5 1046.43 399.4 1057.87 402.667 1071.4L449.567 1224H383.767L341.067 1072.8C335 1054.6 326.833 1041.77 316.567 1034.3C306.3 1026.37 293 1022.4 276.667 1022.4C248.2 1022.4 223.467 1022.4 202.467 1022.4C181.467 1021.93 163.967 1021.47 149.967 1021C135.967 1020.53 124.767 1020.3 116.367 1020.3L118.467 969.2H274.567C298.367 968.733 317.033 965.933 330.567 960.8C344.567 955.667 354.6 946.567 360.667 933.5C366.733 919.967 369.767 901.3 369.767 877.5C369.767 853.7 366.733 835.5 360.667 822.9C354.6 809.833 344.567 800.733 330.567 795.6C317.033 790.467 298.367 787.9 274.567 787.9C236.3 787.9 203.167 788.133 175.167 788.6C147.633 789.067 128.967 789.3 119.167 789.3L109.367 741C127.1 739.133 143.667 737.733 159.067 736.8C174.467 735.867 191.267 735.4 209.467 735.4C228.133 734.933 250.3 734.7 275.967 734.7ZM170.267 741V1224H109.367V741H170.267ZM696.782 874.7C721.982 874.7 743.215 878.2 760.482 885.2C778.215 891.733 791.515 902.933 800.382 918.8C809.248 934.667 813.682 956.367 813.682 983.9V1224H766.782L757.682 1149.8L753.482 1142.1V983.9C753.482 962.9 748.582 947.967 738.782 939.1C729.448 929.767 711.248 925.1 684.182 925.1C666.448 925.1 644.048 926.033 616.982 927.9C590.382 929.767 564.015 931.867 537.882 934.2L532.282 890.1C548.148 887.3 565.415 884.733 584.082 882.4C603.215 880.067 622.582 878.2 642.182 876.8C661.782 875.4 679.982 874.7 696.782 874.7ZM785.682 1014L784.982 1058.8L621.882 1059.5C605.548 1059.97 594.115 1064.4 587.582 1072.8C581.048 1080.73 577.782 1091.93 577.782 1106.4V1128.1C577.782 1145.83 581.982 1158.9 590.382 1167.3C598.782 1175.23 612.315 1179.2 630.982 1179.2C644.048 1179.2 658.748 1176.87 675.082 1172.2C691.882 1167.07 708.682 1159.37 725.482 1149.1C742.282 1138.83 757.682 1125.77 771.682 1109.9V1154C766.548 1160.53 759.082 1168.23 749.282 1177.1C739.948 1185.5 728.515 1193.9 714.982 1202.3C701.915 1210.23 687.215 1217 670.882 1222.6C655.015 1227.73 637.748 1230.3 619.082 1230.3C599.015 1230.3 581.282 1226.8 565.882 1219.8C550.482 1212.33 538.348 1201.6 529.482 1187.6C521.082 1173.13 516.882 1155.63 516.882 1135.1V1098C516.882 1071.4 525.048 1050.87 541.382 1036.4C558.182 1021.47 581.515 1014 611.382 1014H785.682ZM1222.36 883.1L1085.86 1242.9C1080.26 1257.83 1073.26 1272.53 1064.86 1287C1056.46 1301.47 1046.19 1314.53 1034.06 1326.2C1022.39 1338.33 1008.39 1348.13 992.061 1355.6C976.195 1363.07 957.761 1367.27 936.761 1368.2L931.161 1329C958.695 1320.13 979.928 1308.23 994.861 1293.3C1009.79 1278.37 1021.69 1260.17 1030.56 1238.7L1047.36 1198.1C1051.09 1188.77 1054.83 1178.5 1058.56 1167.3C1062.29 1156.1 1065.79 1146.07 1069.06 1137.2L1157.96 883.1H1222.36ZM941.661 883.1L1031.96 1137.2C1034.29 1144.2 1036.63 1151.2 1038.96 1158.2C1041.29 1164.73 1043.16 1171.5 1044.56 1178.5H1060.66L1041.06 1224H1022.86C1018.19 1224 1013.76 1222.6 1009.56 1219.8C1005.83 1217 1003.26 1213.27 1001.86 1208.6L877.961 883.1H941.661ZM1472.78 741C1478.38 741 1483.28 742.633 1487.48 745.9C1491.68 748.7 1494.48 752.667 1495.88 757.8L1651.28 1224H1587.58L1462.28 827.8C1460.41 821.267 1458.31 814.733 1455.98 808.2C1454.11 801.2 1452.25 794.667 1450.38 788.6H1430.78C1428.91 794.667 1427.05 801.2 1425.18 808.2C1423.31 814.733 1421.21 821.267 1418.88 827.8L1293.58 1224H1229.88L1385.28 757.8C1386.68 752.667 1389.48 748.7 1393.68 745.9C1397.88 742.633 1402.78 741 1408.38 741H1472.78ZM1562.38 1019.6V1072.8H1317.38V1019.6H1562.38ZM1780.83 741V1224H1719.23V741H1780.83Z" fill="white"/>
</g>
<defs>
<clipPath id="clip0_16_2">
<rect width="1889" height="1889" fill="white"/>
</clipPath>
</defs>
</svg>
